<?xml version="1.0" encoding="UTF-8" standalone="no"?>
<svg
   width="380"
   height="190"
   viewBox="0 0 380 190"
   fill="none"
   version="1.1"
   id="svg6"
   sodipodi:docname="hero-shape-1.svg"
   inkscape:version="1.3 (0e150ed6c4, 2023-07-21)"
   xmlns:inkscape="http://www.inkscape.org/namespaces/inkscape"
   xmlns:sodipodi="http://sodipodi.sourceforge.net/DTD/sodipodi-0.dtd"
   xmlns="http://www.w3.org/2000/svg"
   xmlns:svg="http://www.w3.org/2000/svg">
  <sodipodi:namedview
     id="namedview6"
     pagecolor="#ffffff"
     bordercolor="#000000"
     borderopacity="0.25"
     inkscape:showpageshadow="2"
     inkscape:pageopacity="0.0"
     inkscape:pagecheckerboard="0"
     inkscape:deskcolor="#d1d1d1"
     showgrid="false"
     inkscape:zoom="2.7052632"
     inkscape:cx="190"
     inkscape:cy="95"
     inkscape:window-width="1920"
     inkscape:window-height="974"
     inkscape:window-x="-11"
     inkscape:window-y="-11"
     inkscape:window-maximized="1"
     inkscape:current-layer="g4" />
  <g
     filter="url(#filter0_d_59_4)"
     id="g4">
    <path
       d="m 35.385696,75.537165 c 0,-27.6142 22.3858,-50 50,-50 H 325.38569 c 5.523,0 10,4.4772 10,10 v 50 c 0,27.614005 -22.386,50.000005 -50,50.000005 H 45.385696 c -5.5228,0 -10,-4.477 -10,-10 z"
       fill="#ffffff"
       shape-rendering="crispEdges"
       id="path1" />
    <circle
       cx="95"
       cy="75"
       r="25"
       fill="#FDEDEF"
       id="circle1" />
    <path
       d="M101.092 85.4375C100.139 85.4375 98.7999 85.0928 96.795 83.9727C94.357 82.6055 92.4713 81.3433 90.0465 78.9248C87.7086 76.5884 86.5709 75.0757 84.9786 72.1783C83.1798 68.9068 83.4864 67.1919 83.8292 66.459C84.2374 65.583 84.8399 65.0591 85.6187 64.5391C86.0611 64.2493 86.5292 64.0008 87.0172 63.7969C87.066 63.7759 87.1114 63.7559 87.1519 63.7378C87.3936 63.6289 87.7599 63.4644 88.2237 63.6402C88.5333 63.7564 88.8097 63.9942 89.2423 64.4214C90.1295 65.2964 91.3419 67.2452 91.7891 68.2022C92.0894 68.8472 92.2882 69.273 92.2887 69.7505C92.2887 70.3096 92.0074 70.7408 91.6661 71.2061C91.6021 71.2935 91.5387 71.377 91.4771 71.458C91.1056 71.9463 91.024 72.0874 91.0777 72.3394C91.1866 72.8457 91.9986 74.3531 93.3331 75.6846C94.6676 77.0161 96.1314 77.7769 96.6397 77.8853C96.9024 77.9414 97.0465 77.8565 97.5504 77.4717C97.6226 77.4165 97.6969 77.3594 97.7745 77.3023C98.295 76.9151 98.7061 76.6411 99.252 76.6411H99.255C99.7301 76.6411 100.137 76.8472 100.811 77.187C101.69 77.6304 103.697 78.8272 104.577 79.7154C105.005 80.147 105.244 80.4224 105.361 80.7315C105.537 81.1968 105.371 81.5616 105.263 81.8057C105.245 81.8462 105.225 81.8907 105.204 81.94C104.999 82.4271 104.749 82.8942 104.458 83.3355C103.939 84.1119 103.413 84.7129 102.535 85.1216C102.084 85.3349 101.591 85.4429 101.092 85.4375Z"
       fill="#EE4A62"
       id="path2" />
    <path
       d="m 154.88778,63.322417 c -0.858,0 -1.647,-0.1993 -2.366,-0.598 -0.711,-0.3987 -1.278,-0.9533 -1.703,-1.664 -0.416,-0.7193 -0.624,-1.5253 -0.624,-2.418 0,-0.8927 0.208,-1.6943 0.624,-2.405 0.425,-0.7107 0.992,-1.2653 1.703,-1.664 0.719,-0.3987 1.508,-0.598 2.366,-0.598 0.858,0 1.642,0.1993 2.353,0.598 0.719,0.3987 1.283,0.9533 1.69,1.664 0.416,0.7107 0.624,1.5123 0.624,2.405 0,0.8927 -0.208,1.6987 -0.624,2.418 -0.416,0.7107 -0.979,1.2653 -1.69,1.664 -0.711,0.3987 -1.495,0.598 -2.353,0.598 z m 0,-2.028 c 0.728,0 1.309,-0.2427 1.742,-0.728 0.442,-0.4853 0.663,-1.1267 0.663,-1.924 0,-0.806 -0.221,-1.4473 -0.663,-1.924 -0.433,-0.4853 -1.014,-0.728 -1.742,-0.728 -0.737,0 -1.326,0.2383 -1.768,0.715 -0.433,0.4767 -0.65,1.1223 -0.65,1.937 0,0.806 0.217,1.4517 0.65,1.937 0.442,0.4767 1.031,0.715 1.768,0.715 z m 14.458,1.937 h -2.223 l -3.718,-5.629 v 5.629 h -2.223 v -9.126 h 2.223 l 3.718,5.655 v -5.655 h 2.223 z m 4.224,-1.716 h 2.912 v 1.716 h -5.135 v -9.126 h 2.223 z m 6.585,-7.41 v 9.126 h -2.223 v -9.126 z m 10.165,9.126 h -2.223 l -3.718,-5.629 v 5.629 h -2.223 v -9.126 h 2.223 l 3.718,5.655 v -5.655 h 2.223 z m 4.225,-7.345 v 1.846 h 2.977 v 1.716 h -2.977 v 2.002 h 3.367 v 1.781 h -5.59 v -9.126 h 5.59 v 1.781 z m 11.647,7.436 c -0.667,0 -1.265,-0.1083 -1.794,-0.325 -0.529,-0.2167 -0.953,-0.5373 -1.274,-0.962 -0.312,-0.4247 -0.477,-0.936 -0.494,-1.534 h 2.366 c 0.035,0.338 0.152,0.598 0.351,0.78 0.199,0.1733 0.459,0.26 0.78,0.26 0.329,0 0.589,-0.0737 0.78,-0.221 0.191,-0.156 0.286,-0.3683 0.286,-0.637 0,-0.2253 -0.078,-0.4117 -0.234,-0.559 -0.147,-0.1473 -0.334,-0.2687 -0.559,-0.364 -0.217,-0.0953 -0.529,-0.2037 -0.936,-0.325 -0.589,-0.182 -1.07,-0.364 -1.443,-0.546 -0.373,-0.182 -0.693,-0.4507 -0.962,-0.806 -0.269,-0.3553 -0.403,-0.819 -0.403,-1.391 0,-0.8493 0.308,-1.5123 0.923,-1.989 0.615,-0.4853 1.417,-0.728 2.405,-0.728 1.005,0 1.816,0.2427 2.431,0.728 0.615,0.4767 0.945,1.144 0.988,2.002 h -2.405 c -0.017,-0.2947 -0.126,-0.5243 -0.325,-0.689 -0.199,-0.1733 -0.455,-0.26 -0.767,-0.26 -0.269,0 -0.485,0.0737 -0.65,0.221 -0.165,0.1387 -0.247,0.3423 -0.247,0.611 0,0.2947 0.139,0.5243 0.416,0.689 0.277,0.1647 0.711,0.3423 1.3,0.533 0.589,0.1993 1.066,0.39 1.43,0.572 0.373,0.182 0.693,0.4463 0.962,0.793 0.269,0.3467 0.403,0.793 0.403,1.339 0,0.52 -0.134,0.9923 -0.403,1.417 -0.26,0.4247 -0.641,0.7627 -1.144,1.014 -0.503,0.2513 -1.096,0.377 -1.781,0.377 z m 7.27,-9.217 v 5.46 c 0,0.546 0.134,0.9663 0.403,1.261 0.269,0.2947 0.663,0.442 1.183,0.442 0.52,0 0.919,-0.1473 1.196,-0.442 0.277,-0.2947 0.416,-0.715 0.416,-1.261 v -5.46 h 2.223 v 5.447 c 0,0.8147 -0.173,1.5037 -0.52,2.067 -0.347,0.5633 -0.815,0.988 -1.404,1.274 -0.581,0.286 -1.231,0.429 -1.95,0.429 -0.719,0 -1.365,-0.1387 -1.937,-0.416 -0.563,-0.286 -1.01,-0.7107 -1.339,-1.274 -0.329,-0.572 -0.494,-1.2653 -0.494,-2.08 v -5.447 z m 14.327,2.938 c 0,0.5287 -0.121,1.014 -0.364,1.456 -0.243,0.4333 -0.615,0.7843 -1.118,1.053 -0.503,0.2687 -1.127,0.403 -1.872,0.403 h -1.378 v 3.276 h -2.223 v -9.126 h 3.601 c 0.728,0 1.343,0.1257 1.846,0.377 0.503,0.2513 0.88,0.598 1.131,1.04 0.251,0.442 0.377,0.949 0.377,1.521 z m -3.523,1.144 c 0.425,0 0.741,-0.0997 0.949,-0.299 0.208,-0.1993 0.312,-0.481 0.312,-0.845 0,-0.364 -0.104,-0.6457 -0.312,-0.845 -0.208,-0.1993 -0.524,-0.299 -0.949,-0.299 h -1.209 v 2.288 z m 12.025,-1.144 c 0,0.5287 -0.121,1.014 -0.364,1.456 -0.242,0.4333 -0.615,0.7843 -1.118,1.053 -0.502,0.2687 -1.126,0.403 -1.872,0.403 h -1.378 v 3.276 h -2.223 v -9.126 h 3.601 c 0.728,0 1.344,0.1257 1.846,0.377 0.503,0.2513 0.88,0.598 1.131,1.04 0.252,0.442 0.377,0.949 0.377,1.521 z m -3.523,1.144 c 0.425,0 0.741,-0.0997 0.949,-0.299 0.208,-0.1993 0.312,-0.481 0.312,-0.845 0,-0.364 -0.104,-0.6457 -0.312,-0.845 -0.208,-0.1993 -0.524,-0.299 -0.949,-0.299 h -1.209 v 2.288 z m 9.387,5.135 c -0.858,0 -1.647,-0.1993 -2.366,-0.598 -0.711,-0.3987 -1.279,-0.9533 -1.703,-1.664 -0.416,-0.7193 -0.624,-1.5253 -0.624,-2.418 0,-0.8927 0.208,-1.6943 0.624,-2.405 0.424,-0.7107 0.992,-1.2653 1.703,-1.664 0.719,-0.3987 1.508,-0.598 2.366,-0.598 0.858,0 1.642,0.1993 2.353,0.598 0.719,0.3987 1.282,0.9533 1.69,1.664 0.416,0.7107 0.624,1.5123 0.624,2.405 0,0.8927 -0.208,1.6987 -0.624,2.418 -0.416,0.7107 -0.98,1.2653 -1.69,1.664 -0.711,0.3987 -1.495,0.598 -2.353,0.598 z m 0,-2.028 c 0.728,0 1.308,-0.2427 1.742,-0.728 0.442,-0.4853 0.663,-1.1267 0.663,-1.924 0,-0.806 -0.221,-1.4473 -0.663,-1.924 -0.434,-0.4853 -1.014,-0.728 -1.742,-0.728 -0.737,0 -1.326,0.2383 -1.768,0.715 -0.434,0.4767 -0.65,1.1223 -0.65,1.937 0,0.806 0.216,1.4517 0.65,1.937 0.442,0.4767 1.031,0.715 1.768,0.715 z m 10.947,1.937 -1.898,-3.445 h -0.533 v 3.445 h -2.223 v -9.126 h 3.731 c 0.72,0 1.331,0.1257 1.833,0.377 0.512,0.2513 0.893,0.598 1.144,1.04 0.252,0.4333 0.377,0.9187 0.377,1.456 0,0.6067 -0.173,1.1483 -0.52,1.625 -0.338,0.4767 -0.84,0.8147 -1.508,1.014 l 2.106,3.614 z m -2.431,-5.018 h 1.378 c 0.408,0 0.711,-0.0997 0.91,-0.299 0.208,-0.1993 0.312,-0.481 0.312,-0.845 0,-0.3467 -0.104,-0.6197 -0.312,-0.819 -0.199,-0.1993 -0.502,-0.299 -0.91,-0.299 h -1.378 z m 13.213,-4.108 v 1.781 h -2.418 v 7.345 h -2.223 v -7.345 h -2.418 v -1.781 z"
       fill="#89898b"
       id="path3" />
    <path
       id="path4"
       d="m 243.88281,77.5 -1.26172,0.539062 c 0.19305,0.285791 0.35509,0.596199 0.5293,0.896485 0.16641,-5.74e-4 0.33264,8.99e-4 0.49805,-0.0078 0.085,0.04643 0.2272,0.152829 0.32226,0.212891 0.17875,-0.153171 0.34488,-0.320723 0.53711,-0.457031 0.0928,-0.06583 0.16855,0.152965 0.24805,0.234375 0.0601,0.06154 0.12288,0.119007 0.18359,0.179687 -0.32606,-0.552679 -0.67082,-1.091132 -1.05664,-1.597656 z m -37.07617,0.699219 c -0.01,0 -0.0178,0.0039 -0.0273,0.0039 0.005,0.109559 0.0392,0.199207 0.0234,0.322266 0.25672,-0.08984 0.51945,-0.151148 0.77735,-0.236329 -0.25536,-0.03546 -0.50159,-0.08984 -0.77344,-0.08984 z m 81.56836,0 c -0.74087,0 -1.40773,0.159134 -2.03125,0.412109 0.0264,0.154341 0.0522,0.307063 0.084,0.462891 0.67725,-0.305441 1.41251,-0.617026 2.1543,-0.857422 -0.0699,-0.0025 -0.13646,-0.01758 -0.20703,-0.01758 z M 170.16797,78.5 c 0.12963,0.153965 0.25356,0.30921 0.36719,0.478516 V 78.5 Z m 52.05664,0 -0.24609,0.380859 c 0.54201,0.08183 1.07484,0.194137 1.58789,0.425782 0.22708,-0.169644 0.44609,-0.33065 0.66797,-0.482422 V 78.5 Z m 16.7168,0 c 0.0485,0.0146 0.0965,0.03061 0.14453,0.04687 V 78.5 Z m 38.22851,0 c 0.0971,0.402866 0.15873,0.815379 0.17969,1.224609 1.48591,-0.194029 2.41234,-0.33155 3.32227,-0.455078 l 0.0703,-0.128906 V 78.5 Z m -54.18359,1.207031 c -0.0201,0.0025 -0.0404,0.0033 -0.0606,0.0059 -0.0112,0.0014 0.0213,0.01937 0.0312,0.01367 0.0101,-0.0059 0.0193,-0.01347 0.0293,-0.01953 z m -1.07227,1.609375 c -0.001,-0.0013 0.17558,0.440361 0.0391,0.462891 -0.25546,0.04218 -0.51386,-0.06563 -0.77148,-0.0918 -0.20634,-0.02096 -0.15009,-0.01351 -0.26562,-0.02344 0.0248,0.234269 0.068,0.438435 0.18164,0.519532 0.0519,0.03727 0.0295,-0.126414 0.0586,-0.183594 0.0911,-0.179151 0.20018,-0.113854 0.4082,-0.132812 0.13371,0.01344 0.22779,0.04398 0.33594,0.06836 l 0.23633,-0.375 c -0.073,-0.08256 -0.14158,-0.169548 -0.22266,-0.244141 z m 85.94336,0.07031 c -0.0906,0.302917 -0.18664,0.622522 -0.41406,0.833984 -0.18176,0.169009 -0.43044,0.313554 -0.70117,0.449219 0.004,0.01258 0.006,0.02659 0.01,0.03906 0.13408,0.41654 0.47973,1.559589 0.79688,2.603516 0.10712,-0.03275 0.21502,-0.03349 0.32226,0.01953 0.1434,0.07089 0.24602,0.135357 0.3711,0.203125 0.0156,-0.06725 0.0471,-0.127097 0.0605,-0.195312 0.086,-0.44 0.13086,-0.916388 0.13086,-1.429688 0,-0.923369 -0.20107,-1.760883 -0.57617,-2.523437 z m -85.54297,0.36914 v 0.142579 c 0.0203,-0.0253 0.0402,-0.05096 0.0606,-0.07617 -0.0197,-0.02259 -0.041,-0.04364 -0.0606,-0.06641 z m -38.10937,0.498047 c -0.31961,0.02806 -0.6395,0.05861 -0.95899,0.08984 0.004,0.01031 0.008,0.0209 0.0117,0.03125 0.2286,0.03084 0.45698,0.06115 0.6836,0.101562 0.0878,-0.076 0.17652,-0.14667 0.26367,-0.222656 z m 50.51172,2.134766 c -0.009,-3.36e-4 -0.0169,0.0023 -0.0254,0.002 -0.0383,0.01972 -0.0771,0.03854 -0.11524,0.05859 0.0671,0.182125 0.0389,0.380293 -0.0117,0.583984 0.30976,-0.184798 0.61855,-0.372129 0.9336,-0.548828 -0.26099,-0.04259 -0.52299,-0.08556 -0.78125,-0.0957 z m 42.28125,0.355469 c -0.0745,0.02097 -0.0838,0.03302 -0.12305,0.04492 -10e-4,0.01118 9.6e-4,0.02833 0,0.03711 0.0412,-0.02699 0.0823,-0.05399 0.12305,-0.08203 z m 21.85547,0.476562 c -0.59312,0.325095 -1.18444,0.653536 -1.7793,0.974609 -0.0158,0.0081 -0.0312,0.01711 -0.0469,0.02539 0.0113,0.02514 0.0256,0.04737 0.0371,0.07227 0.0156,0.0016 0.025,0.003 0.0469,0.0039 0.0302,0.0013 -0.0778,-0.09106 -0.0527,-0.07422 0.0793,0.05319 0.16525,0.106527 0.21875,0.185547 0.21347,0.315074 0.38413,0.655807 0.57618,0.984375 0.0324,0.05901 0.0557,0.159378 0.082,0.248047 0.0501,0.05822 0.092,0.123543 0.14453,0.179687 0.0539,0.0078 0.1078,0.01637 0.16015,0.02344 0.0984,-0.201642 0.20919,-0.402622 0.26758,-0.603516 0.24687,-0.350625 0.55635,-0.651093 0.83594,-0.974609 0.004,-0.03371 0.0163,-0.06767 0.0254,-0.101563 -0.0946,-0.125691 -0.20588,-0.235718 -0.28711,-0.375 -0.10236,-0.178623 -0.15697,-0.376432 -0.22851,-0.568359 z m -161.95313,0.648438 v 1.68164 h 0.30469 c 0.034,-0.401917 0.0784,-0.80329 0.13867,-1.203125 -0.64205,-0.237142 -0.35242,-0.289236 0.0234,-0.171875 0.0164,-0.101935 0.0272,-0.20445 0.041,-0.30664 z m 25.08203,0.61914 c -0.007,0.0039 -0.013,0.0078 -0.0195,0.01172 -0.0215,0.0129 -0.0441,0.02383 -0.0664,0.03516 3.4e-4,0.0206 0.004,0.03791 0.004,0.05859 0.0326,-0.0051 0.0652,-0.01 0.0977,-0.01563 0.003,-0.0027 0.005,-0.0052 0.008,-0.0078 -0.007,-0.02772 -0.0165,-0.05438 -0.0234,-0.08203 z m 140.70313,1.69336 c -0.0962,0.08442 -0.19627,0.162027 -0.31641,0.195312 0.0495,0.007 0.099,0.01621 0.14844,0.02344 0.0499,-0.03449 0.10898,-0.07292 0.16211,-0.109375 0.002,-0.04331 0.004,-0.06429 0.006,-0.109375 z m -150.125,0.546875 c -0.12245,0.0022 -0.24489,0.0019 -0.36719,0.002 9e-4,0.04695 1.8e-4,0.09384 0.004,0.140625 0.14961,0.107185 0.3361,0.1778 0.51757,0.232422 -0.0503,-0.125488 -0.10545,-0.248951 -0.15429,-0.375 z m 87.55078,1.582031 c -0.13578,0.102794 -0.27586,0.197305 -0.41797,0.287109 0.0295,0.173301 0.0199,0.395743 0.0156,0.59375 0.10287,0.04045 0.16578,0.09299 0.2461,0.140625 0.0806,-0.320595 0.12815,-0.664569 0.15625,-1.021484 z m 43.44726,1.300781 c -0.019,0.01874 -0.0686,0.05301 -0.0391,0.04297 0.0206,-0.007 0.0307,-0.01439 0.0508,-0.02148 -0.003,-0.0077 -0.008,-0.01372 -0.0117,-0.02148 z m -59.93164,1.427734 c -0.18345,0.01976 -0.36756,0.03287 -0.55078,0.05469 0.0815,0.0076 0.16241,0.02229 0.24414,0.02734 0.12197,0.0075 0.24505,0.0021 0.36719,0.0078 -0.0238,-0.02743 -0.0391,-0.06069 -0.0606,-0.08984 z M 270.64844,93.140625 269.62109,95 h 1.90625 c -0.032,-0.470589 0.18739,-0.857343 0.54102,-1.169922 -0.75686,-0.190489 -1.19408,-0.422229 -1.41992,-0.689453 z m -64.7168,0.357422 c -0.12376,0.161045 -0.26416,0.306713 -0.42969,0.427734 -0.23007,0.168205 -0.51688,0.176932 -0.8164,0.148438 0.23697,0.216539 0.44059,0.447744 0.49609,0.75 0.023,0.12527 0.0296,0.240959 0.0293,0.353515 0.45041,0.09228 0.92496,0.142578 1.42578,0.142578 0.49629,10e-7 0.95383,-0.05682 1.39062,-0.144531 -0.46061,-0.04382 -0.92164,-0.224902 -1.38281,-0.294922 -0.1526,-0.218831 -0.33849,-0.418226 -0.45898,-0.65625 -0.11005,-0.217389 -0.18835,-0.466363 -0.25391,-0.726562 z m -19.9043,0.474609 c -0.10073,0.279105 -0.20499,0.558191 -0.26953,0.837891 -0.41549,0.09693 -0.83426,0.147545 -1.2539,0.189453 h 1.52343 z m -32.57422,0.0059 c 0.11024,0.08996 0.21399,0.188967 0.33008,0.271484 1.013,0.713299 2.19207,1.070312 3.53907,1.070312 0.81009,0 1.55144,-0.144334 2.23828,-0.402343 -0.15468,-0.220255 -0.31423,-0.43889 -0.4336,-0.669922 -0.25824,0.139446 -0.52689,0.25967 -0.82226,0.332031 -0.23504,0.05759 -0.47901,0.0666 -0.71875,0.09961 -0.25519,-0.0287 -0.51956,-0.01247 -0.76563,-0.08594 -0.29586,-0.08833 -0.56096,-0.224194 -0.80859,-0.382812 -0.005,3.39e-4 -0.0103,0.0016 -0.0156,0.002 -0.87312,0.06437 -1.72275,-0.0099 -2.54297,-0.234375 z m 138.57032,0.148437 c -0.96217,0.268389 -1.92334,0.539575 -2.88477,0.806641 -0.54065,0.145994 -0.89119,0.220894 -1.29297,0.330078 0.17901,0.01335 0.34364,0.05664 0.5293,0.05664 1.04,10e-7 1.96906,-0.207794 2.78906,-0.621093 0.32038,-0.162707 0.59213,-0.365532 0.85938,-0.572266 z m -32.27539,0.07422 c -0.23857,0.03765 -0.47631,0.08145 -0.71485,0.11914 -0.3174,0.03519 -0.51802,0.07635 -0.84765,0.02344 -0.0387,-0.0062 -0.0758,-0.01915 -0.11328,-0.03125 -0.0217,0.0061 -0.0428,0.0098 -0.0645,0.01563 0.31675,0.208325 0.6593,0.387666 1.0293,0.541016 0.746,0.299999 1.58,0.451171 2.5,0.451171 0.89113,0 1.69954,-0.148823 2.42773,-0.435546 -1.24074,0.344589 -1.77434,0.124519 -1.91992,-0.546875 -0.47786,0.161861 -0.94382,0.332929 -1.4668,0.458984 -0.14413,0.03474 -0.3636,0.206684 -0.4375,0.07813 -0.17474,-0.304106 -0.25445,-0.440093 -0.39257,-0.673828 z m -50.52149,0.373047 c -0.0976,0.125087 -0.19892,0.251822 -0.31054,0.357422 0.17223,-0.0654 0.33921,-0.138586 0.5,-0.220703 -0.0599,-0.04467 -0.12575,-0.09102 -0.18946,-0.136719 z m 92.28711,0.207031 c -0.28551,0.01399 -0.57471,0.03861 -0.8457,0.01758 -0.0422,0.0717 -0.0935,0.132716 -0.13867,0.201172 h 0.80273 z m -65.55273,0.3125 c -0.29015,0.03596 -0.62734,0.07847 -0.82813,0.103516 -0.5075,0.0633 -0.5522,0.06846 -0.77929,0.09766 0.56015,-0.01126 1.09741,-0.07442 1.60742,-0.201172 z m -38.75,1.337891 c -0.29327,0.395554 -0.59222,0.788708 -0.92188,1.154297 0.11803,0.236897 0.23234,0.483969 0.35547,0.703124 0.427,0.76 0.84024,1.396857 1.24024,1.910157 l 1.25976,-0.539063 c -0.473,-0.706699 -0.94692,-1.593457 -1.41992,-2.660156 -0.0431,-0.09726 -0.0773,-0.212694 -0.11914,-0.3125 -0.0348,-0.01774 -0.0618,-0.02392 -0.0977,-0.04297 -0.10532,-0.05602 -0.19698,-0.143743 -0.29687,-0.21289 z"
       inkscape:label="path4"
       style="fill:#ffffff;fill-opacity:1" />
  </g>
  <defs
     id="defs6">
    <rect
       x="147.12062"
       y="75.77821"
       width="123.09339"
       height="25.505837"
       id="rect21" />
    <rect
       x="136.46248"
       y="78.56049"
       width="171.37825"
       height="21.240429"
       id="rect19" />
    <rect
       x="136.75345"
       y="76.523737"
       width="171.96018"
       height="23.277182"
       id="rect18" />
    <rect
       x="146.64625"
       y="84.67075"
       width="155.08423"
       height="12.80245"
       id="rect17" />
    <filter
       id="filter0_d_59_4"
       x="0"
       y="0"
       width="380"
       height="190"
       filterUnits="userSpaceOnUse"
       color-interpolation-filters="sRGB">
      <feFlood
         flood-opacity="0"
         result="BackgroundImageFix"
         id="feFlood4" />
      <feColorMatrix
         in="SourceAlpha"
         type="matrix"
         values="0 0 0 0 0 0 0 0 0 0 0 0 0 0 0 0 0 0 127 0"
         result="hardAlpha"
         id="feColorMatrix4" />
      <feOffset
         dy="20"
         id="feOffset4" />
      <feGaussianBlur
         stdDeviation="20"
         id="feGaussianBlur4" />
      <feComposite
         in2="hardAlpha"
         operator="out"
         id="feComposite4" />
      <feColorMatrix
         type="matrix"
         values="0 0 0 0 0 0 0 0 0 0 0 0 0 0 0 0 0 0 0.1 0"
         id="feColorMatrix5" />
      <feBlend
         mode="normal"
         in2="BackgroundImageFix"
         result="effect1_dropShadow_59_4"
         id="feBlend5" />
      <feBlend
         mode="normal"
         in="SourceGraphic"
         in2="effect1_dropShadow_59_4"
         result="shape"
         id="feBlend6" />
    </filter>
  </defs>
</svg>
